<svg id="flat" height="512" viewBox="0 0 512 512" width="512" xmlns="http://www.w3.org/2000/svg"><path d="m487.94586 200v240a16 16 0 0 1 -16 16h-432a16 16 0 0 1 -16-16v-240z" fill="#9e593c"/><path d="m463.94586 288h-416v128a16 16 0 0 0 16 16h384a16 16 0 0 0 16-16z" fill="#914524"/><path d="m271.946 288h176v128h-176z" fill="#b36f42"/><path d="m63.946 288h176v128h-176z" fill="#b36f42"/><path d="m271.94586 288v48h136a95.29294 95.29294 0 0 0 40-8.75v-39.25zm-208 39.25a95.29318 95.29318 0 0 0 40 8.75h136v-48h-176z" fill="#9e593c"/><path d="m103.94586 320a80 80 0 0 1 -80-80v-72a16 16 0 0 1 16-16h432a16 16 0 0 1 16 16v72a80 80 0 0 1 -80 80z" fill="#b36f42"/><path d="m135.946 152v-24h24l8-8h40v32z" fill="#9e593c"/><path d="m175.946 96h24v24h-24z" fill="#f7c04a"/><path d="m375.946 152v-24h-24l-8-8h-40v32z" fill="#9e593c"/><path d="m289.31845 80a16 16 0 0 1 11.3137 4.68629l11.31371 11.31371h24v-16l-14.62741-14.62742a32 32 0 0 0 -22.62745-9.37258h-85.4903a32 32 0 0 0 -22.62742 9.37258l-14.62742 14.62742v16h24l11.31371-11.31371a16 16 0 0 1 11.31371-4.68629z" fill="#b36f42"/><path d="m311.946 96h24v24h-24z" fill="#f7c04a"/><path d="m151.94582 216h.00008a40 40 0 0 1 40 40v112a0 0 0 0 1 0 0h-80a0 0 0 0 1 0 0v-112a40 40 0 0 1 40-40z" fill="#f7c04a"/><path d="m111.946 280h80v16h-80z" fill="#f5a431"/><path d="m135.946 320h32v16h-32z" fill="#f5a431"/><path d="m319.94586 216h80a0 0 0 0 1 0 0v112a40 40 0 0 1 -40 40h-.00008a40 40 0 0 1 -40-40v-112a0 0 0 0 1 0 0z" fill="#f7c04a" transform="matrix(-1 0 0 -1 719.892 584)"/><g fill="#f5a431"><path d="m319.946 280h80v16h-80z"/><path d="m343.946 320h32v16h-32z"/></g></svg>